<svg xmlns="http://www.w3.org/2000/svg" viewBox="0 0 254.66 90.69"><defs><style>.cls-1{stroke:#221f1f;stroke-miterlimit:10;stroke-width:0.25px;}</style></defs><g id="Layer_2" data-name="Layer 2"><g id="Layer_1-2" data-name="Layer 1"><path class="cls-1" d="M166.89,64.62H151.43a5.14,5.14,0,0,0,1.34-1.49,4,4,0,0,0,.6-2.18,4.42,4.42,0,0,0-.36-1.68l-4.67-11H123.55q-3.92,12-3.92,15.35c0,.54.08.87.24,1h-7.39q1.74-1,6.34-10.33T129,31.36l8.78-21.47h3.28l20.72,49.53A11.14,11.14,0,0,0,166.89,64.62ZM148,47.51l-12.58-29.6-5.5,13.41q-3.63,8.9-6.09,16.19Z"/><path class="cls-1" d="M191.75,65.42a32,32,0,0,1-11-1.87,26,26,0,0,1-8.93-5.48,25.37,25.37,0,0,1-6-8.84,30.82,30.82,0,0,1-2.17-11.92,30.91,30.91,0,0,1,2.17-12,25.27,25.27,0,0,1,6-8.84A25.79,25.79,0,0,1,180.73,11a32,32,0,0,1,11.06-1.87,43.13,43.13,0,0,1,9.35.92c2.78.61,5.14,1.21,7.1,1.79l1.46.42-2.41,10a18.07,18.07,0,0,0-6.11-9.06,15.1,15.1,0,0,0-9.43-3.32q-9.66,0-14.64,7.83-4.62,7.26-4.62,19.55t4.62,19.52q5,7.81,14.64,7.82a21.5,21.5,0,0,0,12.87-4,15.41,15.41,0,0,0,6.3-10l.8.11a16.25,16.25,0,0,1-6.61,10.51A22.45,22.45,0,0,1,191.75,65.42Z"/><path class="cls-1" d="M250.73,64.62H211.86a7.59,7.59,0,0,0,2.29-1.78,4.31,4.31,0,0,0,.95-2.92V14.59a4.33,4.33,0,0,0-.95-2.9,7.09,7.09,0,0,0-2.29-1.76h38l2.41,9.36A45.1,45.1,0,0,0,247.05,15q-6.09-4.3-10.91-4.31H223.21V35.33a118.31,118.31,0,0,0,16.8-.92q6-.91,6.8-2.21v7Q246,37.93,240,37a118.14,118.14,0,0,0-16.82-.92V63.85h12.14a13.28,13.28,0,0,0,5.91-1.54,39.09,39.09,0,0,0,5.79-3.54,51.43,51.43,0,0,0,4.39-3.55l1.7-1.53Z"/><path d="M123.18,82.1l-1.35,1.28a4.14,4.14,0,0,0-3.08-1.45,3.38,3.38,0,0,0-3.43,3.43,3.53,3.53,0,0,0,.44,1.8A3.06,3.06,0,0,0,117,88.39a3.57,3.57,0,0,0,1.78.45,3.64,3.64,0,0,0,1.53-.31,5.5,5.5,0,0,0,1.52-1.14l1.31,1.36A7.11,7.11,0,0,1,121,90.27a5.78,5.78,0,0,1-2.27.42,5.4,5.4,0,0,1-4.67-8,5.07,5.07,0,0,1,2-1.89,5.51,5.51,0,0,1,2.75-.72,5.74,5.74,0,0,1,2.4.53A5.67,5.67,0,0,1,123.18,82.1Z"/><path d="M136.24,80.32h2a6.76,6.76,0,0,1,2.39.3,2.48,2.48,0,0,1,1.14,1,3,3,0,0,1,.43,1.64,2.77,2.77,0,0,1-.48,1.67,2.86,2.86,0,0,1-1.44,1l2.4,4.5h-2.1l-2.28-4.29h-.17v4.29h-1.92Zm1.92,4h.6A2.35,2.35,0,0,0,140,84a.91.91,0,0,0,.35-.8,1,1,0,0,0-.17-.58,1,1,0,0,0-.46-.35,3.45,3.45,0,0,0-1.05-.11h-.53Z"/><path d="M155.52,80.32H161V82.2h-3.61V84H161v1.85h-3.61v2.67H161v1.89h-5.51Z"/><path d="M177.15,80.32h1.95L183,90.44h-2l-.79-2.09h-4.12l-.82,2.09h-2Zm1,2.68-1.36,3.47h2.7Z"/><path d="M194.72,80.32h5.58v1.9h-1.84v8.22h-2V82.22h-1.79Z"/><path d="M212.73,80.32h1.91V90.44h-1.91Z"/><path d="M227.28,80.32h2l2.54,7.19,2.58-7.19h2l-3.64,10.12h-1.85Z"/><path d="M249.15,80.32h5.51V82.2h-3.6V84h3.6v1.85h-3.6v2.67h3.6v1.89h-5.51Z"/><path d="M9.62,48.75c4.93,3.06,12.28,10.11,19.55,19.1a139.63,139.63,0,0,1,8.35,11.46l6.24-7.59a3,3,0,0,1,2.32-1.1,3.12,3.12,0,0,1,2.38,1.1l6.23,7.59a139.88,139.88,0,0,1,8.36-11.46A130.55,130.55,0,0,1,75.27,54.58,45.31,45.31,0,0,0,81,48.19l.2-.28a3.18,3.18,0,0,0,0-3.8L50.82,2.81A7,7,0,0,0,46.11,0V43a3.16,3.16,0,0,1,2,3,3,3,0,1,1-6.09,0,3.16,3.16,0,0,1,2-3V0a7,7,0,0,0-4.7,2.81L9,44.11a3.21,3.21,0,0,0,0,3.8Z"/><polygon points="46.08 73.62 32.27 90.44 45.38 90.44 46.84 90.44 59.95 90.44 46.14 73.62 46.08 73.62"/><path d="M90.74,63.43a22.87,22.87,0,0,0-5.24-14,33.64,33.64,0,0,1,1.18,4.86c.61,3.62,1.58,9.43-1,15.2C83,75.46,78,78.3,75.53,79.65a27.57,27.57,0,0,1-14.2,3.47,22,22,0,0,0,8.12,1.6c1.42,0,11.19-.12,17.23-8.11A21.07,21.07,0,0,0,90.74,63.43Z"/><path d="M15.21,79.65C12.8,78.3,7.74,75.46,5.07,69.51c-2.58-5.77-1.61-11.58-1-15.2a35,35,0,0,1,1.18-4.86A22.82,22.82,0,0,0,0,63.43,21,21,0,0,0,4.06,76.61c6,8,15.82,8.12,17.24,8.11a22.13,22.13,0,0,0,8.12-1.6A27.6,27.6,0,0,1,15.21,79.65Z"/></g></g></svg>