<svg  fill="white" xmlns="http://www.w3.org/2000/svg" viewBox="0 0 408.71 64.27"><g id="Layer_2" data-name="Layer 2"><g id="Layer_1-2" data-name="Layer 1"><path d="M110.22,19.68h6.88V52.32h-6.88V45.83q-5,7.41-12.47,7.4a14.34,14.34,0,0,1-11-5.06,17.71,17.71,0,0,1-4.57-12.31,17.36,17.36,0,0,1,4.61-12,14.11,14.11,0,0,1,10.82-5.12,13.73,13.73,0,0,1,7.28,2.09,15,15,0,0,1,5.35,5.46Zm1,16.42A10.4,10.4,0,0,0,108,28.44a10.8,10.8,0,0,0-15.31,0,10.08,10.08,0,0,0-3.25,7.44,10.88,10.88,0,0,0,3.17,7.88,10.77,10.77,0,0,0,15.39,0A10.46,10.46,0,0,0,111.17,36.1Z"/><path d="M146.25,42.35v7.87a20.51,20.51,0,0,1-10.21,3,16.24,16.24,0,0,1-11.85-5.08,16.17,16.17,0,0,1-5.08-11.78,17,17,0,0,1,5.06-12.6,17.32,17.32,0,0,1,12.7-5,21.21,21.21,0,0,1,9.38,2.37v7.68a18.28,18.28,0,0,0-9.81-3.33,10.62,10.62,0,0,0-7.48,3,9.35,9.35,0,0,0-3.21,7,10.6,10.6,0,0,0,3,7.66,9.87,9.87,0,0,0,7.36,3.11Q140.56,46.31,146.25,42.35Z"/><path d="M179.87,37.32H152q.9,5,4.13,7.34a11.75,11.75,0,0,0,7,2.32A12.17,12.17,0,0,0,173,42.11l5,3.8a18.17,18.17,0,0,1-15.15,7.32,16.42,16.42,0,0,1-12.19-5,17,17,0,0,1-4.91-12.39,16.62,16.62,0,0,1,5-12,16.86,16.86,0,0,1,24.2.08Q180,29.09,179.87,37.32Zm-27.14-5.5h19.94c-2.21-4.48-5.49-6.72-9.81-6.72Q155.78,25.1,152.73,31.82Z"/><path d="M223.29,42.35v7.87a20.47,20.47,0,0,1-10.2,3,16.25,16.25,0,0,1-11.86-5.08,16.17,16.17,0,0,1-5.08-11.78,17,17,0,0,1,5.06-12.6,17.35,17.35,0,0,1,12.71-5,21.17,21.17,0,0,1,9.37,2.37v7.68a18.28,18.28,0,0,0-9.81-3.33,10.62,10.62,0,0,0-7.48,3,9.37,9.37,0,0,0-3.2,7,10.59,10.59,0,0,0,3,7.66,9.87,9.87,0,0,0,7.37,3.11Q217.6,46.31,223.29,42.35Z"/><path d="M232,19.68V26.4a20.79,20.79,0,0,1,4.49-5.83,8.72,8.72,0,0,1,5.72-1.8,12.28,12.28,0,0,1,2.85.47L243,26.13a16.59,16.59,0,0,0-2.61-.4,7.8,7.8,0,0,0-5.84,2.43,8.41,8.41,0,0,0-2.35,6.08V52.32h-6.89V19.68Z"/><path d="M278.23,37.32H250.37q.91,5,4.14,7.34a11.75,11.75,0,0,0,7,2.32,12.17,12.17,0,0,0,9.82-4.87l5,3.8a18.17,18.17,0,0,1-15.15,7.32,16.42,16.42,0,0,1-12.19-5,17,17,0,0,1-4.91-12.39,16.62,16.62,0,0,1,5-12,16.86,16.86,0,0,1,24.2.08Q278.31,29.09,278.23,37.32Zm-27.14-5.5H271q-3.33-6.72-9.81-6.72Q254.13,25.1,251.09,31.82Z"/><path d="M308,19.68h6.88V52.32H308V45.83q-5,7.41-12.47,7.4a14.34,14.34,0,0,1-11-5.06,17.71,17.71,0,0,1-4.57-12.31,17.36,17.36,0,0,1,4.61-12,14.11,14.11,0,0,1,10.82-5.12,13.73,13.73,0,0,1,7.28,2.09A15,15,0,0,1,308,26.32Zm.95,16.42a10.37,10.37,0,0,0-3.22-7.66,10.79,10.79,0,0,0-15.3,0,10.08,10.08,0,0,0-3.25,7.44,10.88,10.88,0,0,0,3.17,7.88,10.76,10.76,0,0,0,15.38,0A10.43,10.43,0,0,0,308.93,36.1Z"/><path d="M321.73,10.18h6.89v9.5h6.8V26h-6.8V52.32h-6.89V26h-5.42V19.6h5.42Z"/><path d="M334.54,9a5,5,0,0,1,1.58-3.7,5.18,5.18,0,0,1,3.76-1.56,5.05,5.05,0,0,1,3.7,1.56A5.07,5.07,0,0,1,345.14,9a5,5,0,0,1-1.56,3.72,5.07,5.07,0,0,1-3.7,1.54,5.2,5.2,0,0,1-3.76-1.54A5,5,0,0,1,334.54,9Zm1.94,10.73h6.81V52.32h-6.81Z"/><path d="M344.54,19.68h7.21l9.34,18.87,9.07-18.87h7.26L361,53.55Z"/><path d="M408.71,37.32H380.85c.61,3.35,2,5.8,4.14,7.34A11.75,11.75,0,0,0,392,47a12.15,12.15,0,0,0,9.81-4.87l5,3.8a18.18,18.18,0,0,1-15.16,7.32,16.45,16.45,0,0,1-12.19-5,17,17,0,0,1-4.9-12.39,16.61,16.61,0,0,1,5-12,16.86,16.86,0,0,1,24.2.08Q408.79,29.09,408.71,37.32Zm-27.15-5.5h19.95q-3.33-6.72-9.82-6.72Q384.61,25.1,381.56,31.82Z"/><path d="M6.84,34.65c3.5,2.17,8.72,7.18,13.89,13.57a99.65,99.65,0,0,1,5.94,8.15L31.1,51a2.14,2.14,0,0,1,1.65-.78,2.25,2.25,0,0,1,1.69.78l4.43,5.4a97.33,97.33,0,0,1,5.94-8.15,92.32,92.32,0,0,1,8.68-9.43,32.59,32.59,0,0,0,4.09-4.54l.14-.2a2.25,2.25,0,0,0,0-2.7L36.12,2a5,5,0,0,0-3.35-2V30.57a2.24,2.24,0,0,1,1.45,2.13,2.16,2.16,0,1,1-4.32,0,2.26,2.26,0,0,1,1.45-2.13V0A5,5,0,0,0,28,2L6.4,31.35a2.28,2.28,0,0,0,0,2.7Z"/><polygon points="32.75 52.32 22.93 64.27 32.25 64.27 33.29 64.27 42.6 64.27 32.79 52.32 32.75 52.32"/><path d="M64.49,45.08a16.24,16.24,0,0,0-3.73-9.94,22.79,22.79,0,0,1,.84,3.46c.43,2.57,1.12,6.7-.72,10.8a15.78,15.78,0,0,1-7.2,7.21,19.63,19.63,0,0,1-10.09,2.46,15.62,15.62,0,0,0,5.77,1.14c1,0,8-.09,12.24-5.76A15,15,0,0,0,64.49,45.08Z"/><path d="M10.81,56.61a15.78,15.78,0,0,1-7.2-7.21c-1.84-4.1-1.15-8.23-.72-10.8a22.79,22.79,0,0,1,.84-3.46A16.24,16.24,0,0,0,0,45.08a15,15,0,0,0,2.89,9.37c4.29,5.67,11.24,5.76,12.24,5.76a15.62,15.62,0,0,0,5.77-1.14A19.63,19.63,0,0,1,10.81,56.61Z"/></g></g></svg>