<svg xmlns="http://www.w3.org/2000/svg" viewBox="0 0 408.71 88.24"><defs><style>.cls-1{font-size:81.04px;font-family:TwCenMT-Regular, Tw Cen MT;letter-spacing:-0.07em;}.cls-2{letter-spacing:-0.09em;}</style></defs><g id="Layer_2" data-name="Layer 2"><g id="Layer_1-2" data-name="Layer 1"><text class="cls-1" transform="translate(78.12 65.72)">ace creati<tspan class="cls-2" x="265.18" y="0">v</tspan><tspan x="293.38" y="0">e</tspan></text><path d="M6.84,48.05c3.5,2.17,8.72,7.18,13.89,13.58a97.89,97.89,0,0,1,5.94,8.14l4.43-5.4a2.14,2.14,0,0,1,1.65-.78,2.25,2.25,0,0,1,1.69.78l4.43,5.4a95.66,95.66,0,0,1,5.94-8.14,92.52,92.52,0,0,1,8.68-9.44,31.49,31.49,0,0,0,4.09-4.54l.14-.2a2.25,2.25,0,0,0,0-2.7L36.12,15.4a5,5,0,0,0-3.35-2V44a2.24,2.24,0,0,1,1.45,2.13,2.16,2.16,0,1,1-4.32,0A2.26,2.26,0,0,1,31.35,44V13.4a5,5,0,0,0-3.34,2L6.4,44.75a2.28,2.28,0,0,0,0,2.7Z"/><polygon points="32.75 65.72 22.93 77.67 32.25 77.67 33.29 77.67 42.6 77.67 32.79 65.72 32.75 65.72"/><path d="M64.49,58.48a16.3,16.3,0,0,0-3.73-9.94A22.79,22.79,0,0,1,61.6,52c.43,2.57,1.12,6.7-.72,10.81a15.75,15.75,0,0,1-7.2,7.2,19.63,19.63,0,0,1-10.09,2.46,15.62,15.62,0,0,0,5.77,1.14c1,0,8-.09,12.24-5.76A14.94,14.94,0,0,0,64.49,58.48Z"/><path d="M10.81,70a15.75,15.75,0,0,1-7.2-7.2C1.77,58.7,2.46,54.57,2.89,52a22.79,22.79,0,0,1,.84-3.46A16.3,16.3,0,0,0,0,58.48a14.94,14.94,0,0,0,2.89,9.37c4.29,5.67,11.24,5.77,12.24,5.76a15.62,15.62,0,0,0,5.77-1.14A19.63,19.63,0,0,1,10.81,70Z"/></g></g></svg>