<svg xmlns="http://www.w3.org/2000/svg" viewBox="0 0 266.55 96.73"><defs><style>.cls-1{font-size:78.21px;stroke:#221f1f;stroke-miterlimit:10;stroke-width:0.25px;font-family:stangith;letter-spacing:-0.09em;}.cls-2{letter-spacing:-0.03em;}.cls-3{font-size:14.09px;font-family:CenturyGothic-Bold, Century Gothic;font-weight:700;letter-spacing:0.8em;}</style></defs><g id="Layer_2" data-name="Layer 2"><g id="Layer_1-2" data-name="Layer 1"><text class="cls-1" transform="translate(110.5 66.59) scale(1.04 1)">A<tspan class="cls-2" x="49.24" y="0">CE</tspan></text><text class="cls-3" transform="translate(112.74 92.41)">CREATIVE</text><path d="M9.62,50.72c4.93,3.06,12.28,10.11,19.55,19.11a137.88,137.88,0,0,1,8.35,11.45l6.24-7.59a3,3,0,0,1,2.32-1.1,3.16,3.16,0,0,1,2.38,1.1l6.23,7.59a138.13,138.13,0,0,1,8.36-11.45A128.45,128.45,0,0,1,75.27,56.56,46.45,46.45,0,0,0,81,50.17l.2-.28a3.2,3.2,0,0,0,0-3.81L50.82,4.78A7,7,0,0,0,46.11,2V45a3.16,3.16,0,0,1,2,3,3,3,0,1,1-6.09,0,3.16,3.16,0,0,1,2-3V2a7,7,0,0,0-4.7,2.81L9,46.08a3.23,3.23,0,0,0,0,3.81Z"/><polygon points="46.08 75.59 32.27 92.41 45.38 92.41 46.84 92.41 59.95 92.41 46.14 75.59 46.08 75.59"/><path d="M90.74,65.4a22.9,22.9,0,0,0-5.24-14,33.64,33.64,0,0,1,1.18,4.86c.61,3.62,1.58,9.43-1,15.21C83,77.43,78,80.27,75.53,81.62a27.57,27.57,0,0,1-14.2,3.47,22,22,0,0,0,8.12,1.6c1.42,0,11.19-.12,17.23-8.11A21.07,21.07,0,0,0,90.74,65.4Z"/><path d="M15.21,81.62C12.8,80.27,7.74,77.43,5.07,71.49c-2.58-5.78-1.61-11.59-1-15.21a35,35,0,0,1,1.18-4.86A22.85,22.85,0,0,0,0,65.4,21,21,0,0,0,4.06,78.58c6,8,15.82,8.12,17.24,8.11a22.13,22.13,0,0,0,8.12-1.6A27.6,27.6,0,0,1,15.21,81.62Z"/></g></g></svg>