<?xml version="1.0" encoding="utf-8"?>
<!-- Generator: Adobe Illustrator 26.0.1, SVG Export Plug-In . SVG Version: 6.00 Build 0)  -->
<svg version="1.1" id="Layer_1" xmlns="http://www.w3.org/2000/svg" xmlns:xlink="http://www.w3.org/1999/xlink" x="0px" y="0px"
	 viewBox="0 0 132.2 5.4" style="enable-background:new 0 0 132.2 5.4;" xml:space="preserve">
<style type="text/css">
	.st0{fill:#6d3ec4;}
</style>
<g id="Layer_1-2">
	<path class="st0" d="M0,0.9c37.6-0.4,93.6-1,131.5-0.9c1,0.2,0.8,1.3-0.3,1.4c-0.8,0.1-8,0.3-8.9,0.3L43.9,4.1l28.5,1.3
		C67.3,5.3,53.9,5,48.9,4.9c-1.4-0.1-4.8,0-6.2-0.3c-0.1,0-0.3-0.1-0.4-0.2c-0.1-0.2,0-0.3,0.1-0.5c0.5-0.2,1-0.3,1.5-0.3l31.4-1.1
		l54.9-2c0.4,0,0.8,0,1.2-0.1c-0.1,0.1-0.2,0.2-0.2,0.3c0,0.3,0.2,0.3,0.1,0.3c-0.6-0.1-1.3-0.2-1.9-0.1C92.2,0.9,36.9,1.1,0,0.9z"
		/>
</g>
</svg>
